<svg width="123" height="35" viewBox="0 0 123 35" fill="none" xmlns="http://www.w3.org/2000/svg">
<path d="M12.3203 18.2557V16.2557L20.3203 12.733V15.0341L14.843 17.233L14.9169 17.1136V17.3977L14.843 17.2784L20.3203 19.4773V21.7784L12.3203 18.2557ZM22.7692 11.3636H25.8033L29.0078 19.1818H29.1442L32.3487 11.3636H35.3828V23H32.9964V15.4261H32.8999L29.8885 22.9432H28.2635L25.2521 15.3977H25.1555V23H22.7692V11.3636ZM39.853 23.1648C39.2962 23.1648 38.8 23.0682 38.3643 22.875C37.9287 22.678 37.584 22.3883 37.3303 22.0057C37.0803 21.6193 36.9553 21.1383 36.9553 20.5625C36.9553 20.0777 37.0443 19.6705 37.2223 19.3409C37.4003 19.0114 37.6428 18.7462 37.9496 18.5455C38.2564 18.3447 38.6049 18.1932 38.995 18.0909C39.389 17.9886 39.8018 17.9167 40.2337 17.875C40.7412 17.822 41.1503 17.7727 41.4609 17.7273C41.7715 17.678 41.9969 17.6061 42.1371 17.5114C42.2772 17.4167 42.3473 17.2765 42.3473 17.0909V17.0568C42.3473 16.697 42.2337 16.4186 42.0064 16.2216C41.7829 16.0246 41.4647 15.9261 41.0518 15.9261C40.6162 15.9261 40.2696 16.0227 40.0121 16.2159C39.7545 16.4053 39.584 16.6439 39.5007 16.9318L37.2621 16.75C37.3757 16.2197 37.5992 15.7614 37.9325 15.375C38.2659 14.9848 38.6958 14.6856 39.2223 14.4773C39.7526 14.2652 40.3662 14.1591 41.0632 14.1591C41.5481 14.1591 42.0121 14.2159 42.4553 14.3295C42.9022 14.4432 43.2981 14.6193 43.6428 14.858C43.9912 15.0966 44.2659 15.4034 44.4666 15.7784C44.6674 16.1496 44.7678 16.5947 44.7678 17.1136V23H42.4723V21.7898H42.4041C42.264 22.0625 42.0765 22.303 41.8416 22.5114C41.6068 22.7159 41.3246 22.8769 40.995 22.9943C40.6655 23.108 40.2848 23.1648 39.853 23.1648ZM40.5462 21.4943C40.9022 21.4943 41.2166 21.4242 41.4893 21.2841C41.7621 21.1402 41.9761 20.947 42.1314 20.7045C42.2867 20.4621 42.3643 20.1875 42.3643 19.8807V18.9545C42.2886 19.0038 42.1844 19.0492 42.0518 19.0909C41.9231 19.1288 41.7772 19.1648 41.6143 19.1989C41.4515 19.2292 41.2886 19.2576 41.1257 19.2841C40.9628 19.3068 40.8151 19.3277 40.6825 19.3466C40.3984 19.3883 40.1503 19.4545 39.9382 19.5455C39.7261 19.6364 39.5613 19.7595 39.4439 19.9148C39.3265 20.0663 39.2678 20.2557 39.2678 20.483C39.2678 20.8125 39.3871 21.0644 39.6257 21.2386C39.8681 21.4091 40.175 21.4943 40.5462 21.4943ZM48.6683 14.2727L50.2706 17.3239L51.9126 14.2727H54.3956L51.8672 18.6364L54.4638 23H51.9922L50.2706 19.983L48.5774 23H46.0774L48.6683 18.6364L46.1683 14.2727H48.6683ZM59.4638 23.1705C58.5812 23.1705 57.8179 22.983 57.174 22.608C56.5339 22.2292 56.0395 21.7027 55.6911 21.0284C55.3426 20.3504 55.1683 19.5644 55.1683 18.6705C55.1683 17.7689 55.3426 16.9811 55.6911 16.3068C56.0395 15.6288 56.5339 15.1023 57.174 14.7273C57.8179 14.3485 58.5812 14.1591 59.4638 14.1591C60.3464 14.1591 61.1077 14.3485 61.7479 14.7273C62.3918 15.1023 62.888 15.6288 63.2365 16.3068C63.585 16.9811 63.7592 17.7689 63.7592 18.6705C63.7592 19.5644 63.585 20.3504 63.2365 21.0284C62.888 21.7027 62.3918 22.2292 61.7479 22.608C61.1077 22.983 60.3464 23.1705 59.4638 23.1705ZM59.4751 21.2955C59.8767 21.2955 60.2119 21.1818 60.4808 20.9545C60.7498 20.7235 60.9524 20.4091 61.0888 20.0114C61.2289 19.6136 61.299 19.161 61.299 18.6534C61.299 18.1458 61.2289 17.6932 61.0888 17.2955C60.9524 16.8977 60.7498 16.5833 60.4808 16.3523C60.2119 16.1212 59.8767 16.0057 59.4751 16.0057C59.0698 16.0057 58.7289 16.1212 58.4524 16.3523C58.1797 16.5833 57.9732 16.8977 57.8331 17.2955C57.6967 17.6932 57.6286 18.1458 57.6286 18.6534C57.6286 19.161 57.6967 19.6136 57.8331 20.0114C57.9732 20.4091 58.1797 20.7235 58.4524 20.9545C58.7289 21.1818 59.0698 21.2955 59.4751 21.2955ZM65.3331 23V14.2727H67.6797V15.7955H67.7706C67.9297 15.2538 68.1967 14.8447 68.5717 14.5682C68.9467 14.2879 69.3786 14.1477 69.8672 14.1477C69.9884 14.1477 70.1191 14.1553 70.2592 14.1705C70.3994 14.1856 70.5225 14.2064 70.6286 14.233V16.3807C70.5149 16.3466 70.3577 16.3163 70.157 16.2898C69.9562 16.2633 69.7725 16.25 69.6058 16.25C69.2498 16.25 68.9316 16.3277 68.6513 16.483C68.3748 16.6345 68.1551 16.8466 67.9922 17.1193C67.8331 17.392 67.7536 17.7064 67.7536 18.0625V23H65.3331ZM71.9254 23V11.3636H74.3459V15.7386H74.4197C74.5258 15.5038 74.6792 15.2652 74.88 15.0227C75.0845 14.7765 75.3497 14.572 75.6754 14.4091C76.005 14.2424 76.4141 14.1591 76.9027 14.1591C77.5391 14.1591 78.1262 14.3258 78.6641 14.6591C79.2019 14.9886 79.6319 15.4867 79.9538 16.1534C80.2758 16.8163 80.4368 17.6477 80.4368 18.6477C80.4368 19.6212 80.2796 20.4432 79.9652 21.1136C79.6546 21.7803 79.2304 22.286 78.6925 22.6307C78.1584 22.9716 77.5599 23.142 76.897 23.142C76.4273 23.142 76.0277 23.0644 75.6982 22.9091C75.3724 22.7538 75.1054 22.5587 74.897 22.3239C74.6887 22.0852 74.5296 21.8447 74.4197 21.6023H74.3118V23H71.9254ZM74.2947 18.6364C74.2947 19.1553 74.3667 19.608 74.5107 19.9943C74.6546 20.3807 74.8629 20.6818 75.1357 20.8977C75.4084 21.1098 75.7398 21.2159 76.13 21.2159C76.5239 21.2159 76.8572 21.108 77.13 20.892C77.4027 20.6723 77.6091 20.3693 77.7493 19.983C77.8932 19.5928 77.9652 19.1439 77.9652 18.6364C77.9652 18.1326 77.8951 17.6894 77.755 17.3068C77.6148 16.9242 77.4084 16.625 77.1357 16.4091C76.8629 16.1932 76.5277 16.0852 76.13 16.0852C75.736 16.0852 75.4027 16.1894 75.13 16.3977C74.861 16.6061 74.6546 16.9015 74.5107 17.2841C74.3667 17.6667 74.2947 18.1174 74.2947 18.6364ZM82.0518 23V14.2727H84.4723V23H82.0518ZM83.2678 13.1477C82.9079 13.1477 82.5992 13.0284 82.3416 12.7898C82.0878 12.5473 81.9609 12.2576 81.9609 11.9205C81.9609 11.5871 82.0878 11.3011 82.3416 11.0625C82.5992 10.8201 82.9079 10.6989 83.2678 10.6989C83.6276 10.6989 83.9344 10.8201 84.1882 11.0625C84.4458 11.3011 84.5746 11.5871 84.5746 11.9205C84.5746 12.2576 84.4458 12.5473 84.1882 12.7898C83.9344 13.0284 83.6276 13.1477 83.2678 13.1477ZM90.3885 23.1705C89.4908 23.1705 88.718 22.9886 88.0703 22.625C87.4264 22.2576 86.9302 21.7386 86.5817 21.0682C86.2332 20.3939 86.0589 19.5966 86.0589 18.6761C86.0589 17.7784 86.2332 16.9905 86.5817 16.3125C86.9302 15.6345 87.4207 15.1061 88.0533 14.7273C88.6896 14.3485 89.4358 14.1591 90.2919 14.1591C90.8677 14.1591 91.4036 14.2519 91.8999 14.4375C92.3999 14.6193 92.8355 14.8939 93.2067 15.2614C93.5817 15.6288 93.8733 16.0909 94.0817 16.6477C94.29 17.2008 94.3942 17.8485 94.3942 18.5909V19.2557H87.0249V17.7557H92.1158C92.1158 17.4072 92.04 17.0985 91.8885 16.8295C91.737 16.5606 91.5268 16.3504 91.2578 16.1989C90.9927 16.0436 90.6839 15.9659 90.3317 15.9659C89.9643 15.9659 89.6385 16.0511 89.3544 16.2216C89.0741 16.3883 88.8544 16.6136 88.6953 16.8977C88.5362 17.178 88.4548 17.4905 88.451 17.8352V19.2614C88.451 19.6932 88.5305 20.0663 88.6896 20.3807C88.8525 20.6951 89.0817 20.9375 89.3771 21.108C89.6726 21.2784 90.023 21.3636 90.4283 21.3636C90.6972 21.3636 90.9434 21.3258 91.1669 21.25C91.3904 21.1742 91.5817 21.0606 91.7408 20.9091C91.8999 20.7576 92.0211 20.572 92.1044 20.3523L94.343 20.5C94.2294 21.0379 93.9964 21.5076 93.6442 21.9091C93.2957 22.3068 92.8449 22.6174 92.2919 22.8409C91.7427 23.0606 91.1082 23.1705 90.3885 23.1705ZM101.042 10.8182L97.2919 24.75H95.2067L98.9567 10.8182H101.042ZM110.68 19.3466L102.68 22.8693V20.5682L108.157 18.3693L108.083 18.4886V18.2045L108.157 18.3239L102.68 16.125V13.8239L110.68 17.3466V19.3466Z" fill="#B80990"/>
</svg>
